<?xml version="1.0" encoding="UTF-8" standalone="no"?>
<!DOCTYPE svg PUBLIC "-//W3C//DTD SVG 1.1//EN" "http://www.w3.org/Graphics/SVG/1.1/DTD/svg11.dtd">
<svg width="100%" height="100%" viewBox="0 0 40 40" version="1.1" xmlns="http://www.w3.org/2000/svg" xmlns:xlink="http://www.w3.org/1999/xlink" xml:space="preserve" xmlns:serif="http://www.serif.com/" style="fill-rule:evenodd;clip-rule:evenodd;stroke-linejoin:round;stroke-miterlimit:2;">
    <g transform="matrix(0.907337,0,0,0.907337,-581.661,-157.664)">
        <path d="M650.419,209.769L651.286,215.168L656.599,209.856L655.732,204.457L650.419,209.769ZM650.694,217.873C650.604,217.873 650.513,217.86 650.424,217.831C650.112,217.73 649.882,217.462 649.829,217.137L648.62,209.605C648.576,209.328 648.667,209.046 648.866,208.848L655.705,202.008C655.938,201.775 656.279,201.691 656.594,201.794C656.907,201.895 657.136,202.163 657.189,202.488L658.398,210.02C658.442,210.297 658.351,210.579 658.153,210.777L651.313,217.617C651.146,217.784 650.922,217.873 650.694,217.873Z" style="fill:white;fill-rule:nonzero;"/>
    </g>
    <g transform="matrix(0.907337,0,0,0.907337,-581.661,-157.664)">
        <path d="M643.769,207.651L649.168,208.518L654.481,203.205L649.081,202.338L643.769,207.651ZM649.471,210.328C649.425,210.328 649.378,210.325 649.332,210.317L641.8,209.107C641.476,209.055 641.207,208.826 641.107,208.513C641.005,208.2 641.087,207.857 641.32,207.625L648.159,200.785C648.359,200.586 648.642,200.494 648.917,200.54L656.45,201.749C656.774,201.801 657.042,202.031 657.143,202.344C657.244,202.657 657.162,202.999 656.93,203.232L650.09,210.072C649.924,210.237 649.701,210.328 649.471,210.328Z" style="fill:white;fill-rule:nonzero;"/>
    </g>
    <g transform="matrix(0.907337,0,0,0.907337,-581.661,-157.664)">
        <path d="M664.631,193.083L654.742,202.972L655.979,204.21L665.868,194.32C665.456,193.908 665.044,193.495 664.631,193.083Z" style="fill:white;fill-rule:nonzero;"/>
    </g>
    <g transform="matrix(0.907337,0,0,0.907337,-581.661,-157.664)">
        <path d="M665.339,192.145L666.806,193.612L678.06,182.358C678.159,182.204 678.089,181.561 677.92,181.031C677.348,180.847 676.735,180.799 676.585,180.898L665.339,192.145ZM666.806,195.724C666.582,195.724 666.358,195.639 666.187,195.468L663.483,192.764C663.142,192.422 663.142,191.868 663.483,191.526L675.356,179.653C676.376,178.633 678.331,179.307 678.712,179.454C678.827,179.498 678.932,179.566 679.02,179.653L679.298,179.931C679.385,180.018 679.452,180.123 679.496,180.238C679.642,180.62 680.317,182.576 679.298,183.595L667.425,195.468C667.254,195.639 667.03,195.724 666.806,195.724Z" style="fill:white;fill-rule:nonzero;"/>
    </g>
    <g transform="matrix(0.907337,0,0,0.907337,-581.661,-157.664)">
        <path d="M685.075,173.838C684.979,173.744 684.828,173.742 684.731,173.831L677.779,180.141C677.728,180.187 677.699,180.252 677.697,180.321C677.695,180.389 677.721,180.455 677.77,180.503L678.492,181.225C678.539,181.272 678.603,181.299 678.669,181.299L678.677,181.299C678.745,181.296 678.811,181.266 678.857,181.214L685.086,174.181C685.174,174.082 685.169,173.931 685.075,173.838Z" style="fill:white;fill-rule:nonzero;"/>
    </g>
    <g transform="matrix(0.907337,0,0,0.907337,-581.661,-157.664)">
        <path d="M675.954,186.408L672.543,182.996L673.25,182.289L676.661,185.701L675.954,186.408Z" style="fill:white;fill-rule:nonzero;"/>
    </g>
    <g transform="matrix(0.907337,0,0,0.907337,-581.661,-157.664)">
        <path d="M672.793,189.569L669.382,186.158L670.089,185.451L673.5,188.862L672.793,189.569Z" style="fill:white;fill-rule:nonzero;"/>
    </g>
</svg>
