<?xml version="1.0" encoding="UTF-8" standalone="no"?>
<!DOCTYPE svg PUBLIC "-//W3C//DTD SVG 1.1//EN" "http://www.w3.org/Graphics/SVG/1.1/DTD/svg11.dtd">
<svg width="100%" height="100%" viewBox="0 0 40 40" version="1.1" xmlns="http://www.w3.org/2000/svg" xmlns:xlink="http://www.w3.org/1999/xlink" xml:space="preserve" xmlns:serif="http://www.serif.com/" style="fill-rule:evenodd;clip-rule:evenodd;stroke-linejoin:round;stroke-miterlimit:2;">
    <g transform="matrix(0.880573,0,0,0.880592,-563.913,-92.5651)">
        <path d="M663.106,106.867C651.547,106.867 642.144,116.27 642.144,127.829C642.144,139.387 651.547,148.791 663.106,148.791C674.665,148.791 684.069,139.387 684.069,127.829C684.069,116.27 674.665,106.867 663.106,106.867ZM663.106,150.541C650.583,150.541 640.394,140.352 640.394,127.829C640.394,115.305 650.583,105.117 663.106,105.117C675.63,105.117 685.819,115.305 685.819,127.829C685.819,140.352 675.63,150.541 663.106,150.541Z" style="fill:white;fill-rule:nonzero;"/>
    </g>
    <g transform="matrix(0.880573,0,0,0.880592,-563.913,-92.5651)">
        <path d="M663.106,106.867C651.547,106.867 642.144,116.27 642.144,127.829C642.144,139.387 651.547,148.791 663.106,148.791C674.665,148.791 684.069,139.387 684.069,127.829C684.069,116.27 674.665,106.867 663.106,106.867ZM663.106,150.541C650.583,150.541 640.394,140.352 640.394,127.829C640.394,115.305 650.583,105.117 663.106,105.117C675.63,105.117 685.819,115.305 685.819,127.829C685.819,140.352 675.63,150.541 663.106,150.541Z" style="fill:white;fill-rule:nonzero;"/>
    </g>
    <g transform="matrix(0.880573,0,0,0.880592,-563.913,-92.5651)">
        <path d="M667.963,131.462L665.043,122.771C665.009,122.668 664.909,122.604 664.803,122.601L655.635,122.692C655.528,122.693 655.432,122.764 655.4,122.867L652.654,131.614C652.622,131.717 652.659,131.83 652.748,131.893L660.218,137.207C660.261,137.238 660.312,137.254 660.363,137.254C660.416,137.254 660.467,137.237 660.512,137.204L667.875,131.742C667.962,131.677 667.998,131.564 667.963,131.462Z" style="fill:white;fill-rule:nonzero;"/>
    </g>
    <g transform="matrix(0.880573,0,0,0.880592,-563.913,-92.5651)">
        <path d="M645.745,140.825L648.012,133.602C648.044,133.499 648.007,133.386 647.918,133.323L641.443,128.717C641.626,133.249 643.196,137.424 645.745,140.825Z" style="fill:white;fill-rule:nonzero;"/>
    </g>
    <g transform="matrix(0.880573,0,0,0.880592,-563.913,-92.5651)">
        <path d="M663.106,149.515C665.103,149.515 667.034,149.239 668.87,148.734C668.852,148.685 668.819,148.642 668.773,148.611L661.103,143.589C661.015,143.53 660.895,143.536 660.81,143.603L655.275,148.051C657.705,148.993 660.344,149.515 663.106,149.515Z" style="fill:white;fill-rule:nonzero;"/>
    </g>
    <g transform="matrix(0.880573,0,0,0.880592,-563.913,-92.5651)">
        <path d="M684.76,128.997L681.484,126.935C681.392,126.877 681.274,126.884 681.191,126.954L674.149,132.824C674.066,132.894 674.037,133.008 674.077,133.109L677.483,141.621C677.521,141.716 677.614,141.778 677.715,141.778L677.732,141.778L679.828,141.638C682.697,138.167 684.506,133.789 684.76,128.997Z" style="fill:white;fill-rule:nonzero;"/>
    </g>
    <g transform="matrix(0.880573,0,0,0.880592,-563.913,-92.5651)">
        <path d="M644.256,117.113L652.514,118.27C652.526,118.272 652.538,118.273 652.549,118.273C652.644,118.273 652.732,118.219 652.774,118.132L656.572,110.335C656.62,110.237 656.599,110.121 656.521,110.046L654.377,107.977C650.102,109.86 646.552,113.082 644.256,117.113Z" style="fill:white;fill-rule:nonzero;"/>
    </g>
    <g transform="matrix(0.880573,0,0,0.880592,-563.913,-92.5651)">
        <path d="M678.613,118.255C678.708,118.255 678.795,118.201 678.837,118.114L680.448,114.808C677.606,111.029 673.556,108.213 668.873,106.924L667.82,107.485C667.724,107.535 667.672,107.642 667.691,107.749L669.287,116.777C669.305,116.883 669.391,116.966 669.498,116.981L678.578,118.253C678.589,118.254 678.601,118.255 678.613,118.255Z" style="fill:white;fill-rule:nonzero;"/>
    </g>
    <g transform="matrix(0.880573,0,0,0.880592,-563.913,-92.5651)">
        <path d="M645.184,139.335L645.184,139.948L657.476,148.692L657.476,148.079L645.184,139.335Z" style="fill:white;fill-rule:nonzero;"/>
    </g>
    <g transform="matrix(0.880573,0,0,0.880592,-563.913,-92.5651)">
        <path d="M653.245,131.538L645.701,134.073L646.096,134.468L653.405,132.012C653.536,131.968 653.606,131.826 653.562,131.695C653.518,131.565 653.375,131.492 653.245,131.538Z" style="fill:white;fill-rule:nonzero;"/>
    </g>
    <g transform="matrix(0.880573,0,0,0.880592,-563.913,-92.5651)">
        <path d="M646.668,114.987L641.847,130.347L642.37,130.347L647.432,114.223L646.668,114.987Z" style="fill:white;fill-rule:nonzero;"/>
    </g>
    <g transform="matrix(0.880573,0,0,0.880592,-563.913,-92.5651)">
        <path d="M670.568,110.35L651.11,110.35L650.605,110.845L671.066,110.845C670.9,110.68 670.734,110.515 670.568,110.35Z" style="fill:white;fill-rule:nonzero;"/>
    </g>
    <g transform="matrix(0.880573,0,0,0.880592,-563.913,-92.5651)">
        <path d="M672.841,112.61L664.399,123.258C664.314,123.366 664.332,123.524 664.44,123.609C664.486,123.646 664.541,123.663 664.595,123.663C664.668,123.663 664.742,123.631 664.792,123.569L673.198,112.965C673.079,112.847 672.96,112.729 672.841,112.61Z" style="fill:white;fill-rule:nonzero;"/>
    </g>
    <g transform="matrix(0.880573,0,0,0.880592,-563.913,-92.5651)">
        <path d="M683.483,135.763C683.489,135.725 683.495,135.686 683.482,135.648L677.192,116.927C677.183,116.919 677.173,116.917 677.164,116.909C676.91,116.658 676.658,116.404 676.404,116.153L682.861,135.37L667.419,131.393C667.283,131.36 667.149,131.439 667.115,131.572C667.081,131.706 667.161,131.842 667.294,131.877L682.674,135.839L665.976,148.227L665.976,148.85L683.394,135.928L683.395,135.927C683.402,135.921 683.404,135.911 683.41,135.906C683.444,135.874 683.471,135.838 683.483,135.795C683.484,135.793 683.486,135.792 683.487,135.79C683.489,135.78 683.482,135.772 683.483,135.763Z" style="fill:white;fill-rule:nonzero;"/>
    </g>
    <g transform="matrix(0.880573,0,0,0.880592,-563.913,-92.5651)">
        <path d="M649.432,112.223L649.068,112.587L655.424,123.071C655.471,123.149 655.554,123.192 655.638,123.192C655.682,123.192 655.727,123.18 655.768,123.156C655.886,123.084 655.923,122.93 655.852,122.813L649.432,112.223Z" style="fill:white;fill-rule:nonzero;"/>
    </g>
    <g transform="matrix(0.880573,0,0,0.880592,-563.913,-92.5651)">
        <path d="M660.367,136.554C660.229,136.568 660.129,136.691 660.143,136.828L661.337,148.347L661.84,148.347L660.641,136.777C660.626,136.639 660.507,136.544 660.367,136.554Z" style="fill:white;fill-rule:nonzero;"/>
    </g>
    <g transform="matrix(0.880573,0,0,0.880592,-563.913,-92.5651)">
        <path d="M663.106,106.867C651.547,106.867 642.144,116.27 642.144,127.829C642.144,139.387 651.547,148.791 663.106,148.791C674.665,148.791 684.069,139.387 684.069,127.829C684.069,116.27 674.665,106.867 663.106,106.867ZM663.106,150.541C650.583,150.541 640.394,140.352 640.394,127.829C640.394,115.305 650.583,105.117 663.106,105.117C675.63,105.117 685.819,115.305 685.819,127.829C685.819,140.352 675.63,150.541 663.106,150.541Z" style="fill:white;fill-rule:nonzero;"/>
    </g>
</svg>
