<?xml version="1.0" encoding="UTF-8" standalone="no"?>
<!DOCTYPE svg PUBLIC "-//W3C//DTD SVG 1.1//EN" "http://www.w3.org/Graphics/SVG/1.1/DTD/svg11.dtd">
<svg width="100%" height="100%" viewBox="0 0 40 40" version="1.1" xmlns="http://www.w3.org/2000/svg" xmlns:xlink="http://www.w3.org/1999/xlink" xml:space="preserve" xmlns:serif="http://www.serif.com/" style="fill-rule:evenodd;clip-rule:evenodd;stroke-linejoin:round;stroke-miterlimit:2;">
    <g transform="matrix(0.0555481,-0.0201761,0.0201761,0.0555481,-71.2737,-12.1394)">
        <path d="M1471.92,782.97C1510.85,782.97 1542.52,814.641 1542.52,853.571C1542.52,892.5 1510.85,924.171 1471.92,924.171C1432.99,924.171 1401.32,892.5 1401.32,853.571C1401.32,814.641 1432.99,782.97 1471.92,782.97ZM1471.92,934.171C1516.36,934.171 1552.52,898.014 1552.52,853.571C1552.52,809.128 1516.36,772.97 1471.92,772.97C1427.47,772.97 1391.32,809.128 1391.32,853.571C1391.32,898.014 1427.47,934.171 1471.92,934.171Z" style="fill:white;fill-rule:nonzero;"/>
    </g>
    <g transform="matrix(0.0555481,-0.0201761,0.0201761,0.0555481,-71.2737,-12.1394)">
        <path d="M1109.79,1218.2C1103.61,1222.85 1096.29,1225.31 1088.62,1225.31C1086.93,1225.31 1085.23,1225.19 1083.56,1224.95C1082,1224.73 1080.38,1224.36 1078.46,1223.79L1078.17,1223.71L1077.48,1223.61C1075.75,1223.46 1074.34,1223.26 1073.01,1222.97L929.81,1194.15C920.568,1192.16 912.652,1186.69 907.522,1178.75C902.392,1170.81 900.663,1161.34 902.652,1152.1C904.743,1142.37 910.876,1133.93 919.48,1128.93C927.044,1124.54 936.015,1123.07 944.77,1124.95L1078.98,1151.97L1079.87,1152.14L1160.9,1090.48C1160.9,1090.48 1160.86,1088.23 1161.63,1084.22C1162.21,1081.19 1164.37,1075.27 1164.37,1075.27L1076.58,1142.08L946.807,1115.16C943.66,1114.48 940.44,1114.14 937.235,1114.14C929.251,1114.14 921.374,1116.26 914.456,1120.28C903.422,1126.7 895.557,1137.52 892.876,1149.99C890.324,1161.85 892.543,1173.99 899.122,1184.17C905.7,1194.36 915.865,1201.38 927.773,1203.94L1070.97,1232.76C1072.54,1233.1 1074.18,1233.34 1076.11,1233.53C1078.28,1234.15 1080.26,1234.58 1082.15,1234.85C1084.3,1235.15 1086.47,1235.31 1088.62,1235.31C1098.47,1235.31 1107.87,1232.16 1115.8,1226.19L1205.52,1158.74L1198.4,1151.68L1109.79,1218.2Z" style="fill:white;fill-rule:nonzero;"/>
    </g>
    <g transform="matrix(0.0555481,-0.0201761,0.0201761,0.0555481,-71.2737,-12.1394)">
        <path d="M1568.54,1112.41C1566.95,1093.97 1551.22,1079.53 1532.74,1079.53C1531.71,1079.53 1530.67,1079.57 1529.76,1079.65L1472.35,1083.25L1444.1,969.219C1444.1,969.219 1442.73,980.536 1441.96,984.253C1441.52,986.382 1439.67,992.638 1439.67,992.638L1464.65,1093.76L1530.5,1089.63C1531.24,1089.56 1531.99,1089.53 1532.74,1089.53C1546.08,1089.53 1557.43,1099.96 1558.58,1113.27C1559.17,1120.18 1557.05,1126.91 1552.58,1132.22C1548.12,1137.53 1541.88,1140.78 1535.06,1141.37L1446.37,1146.93C1445.65,1146.99 1444.9,1147.03 1444.14,1147.03C1430.8,1147.03 1419.45,1136.59 1418.3,1123.24L1418.3,1122.55L1398.76,1041.4L1390.56,1051.29L1408.24,1123.71C1408.26,1123.81 1408.29,1123.92 1408.33,1124.04C1408.33,1124.08 1408.33,1124.12 1408.34,1124.15C1409.93,1142.59 1425.66,1157.03 1444.14,1157.03C1445.17,1157.03 1446.22,1156.98 1447.12,1156.9L1535.8,1151.34C1545.38,1150.51 1554.05,1146.01 1560.24,1138.65C1566.42,1131.3 1569.37,1121.98 1568.54,1112.41Z" style="fill:white;fill-rule:nonzero;"/>
    </g>
    <g transform="matrix(0.0555481,-0.0201761,0.0201761,0.0555481,-71.2737,-12.1394)">
        <path d="M1381.97,1223.55L1380.42,1369.45C1380.21,1378.1 1376.66,1386.14 1370.42,1392.08C1364.4,1397.82 1356.51,1400.99 1348.22,1400.99L1347.46,1400.98C1338.36,1400.77 1329.73,1396.71 1323.79,1389.86C1318.52,1383.78 1315.73,1375.95 1315.92,1367.79L1317.41,1228.35L1315.36,1226.83C1314.41,1226.13 1220.46,1156.37 1185.67,1112.05C1180.22,1105.12 1179.35,1097.78 1178.78,1092.92L1178.69,1092.12C1177.71,1084.05 1180.78,1075.54 1187.11,1068.76L1312.06,932.907L1209.63,914.344L1142.8,974.008C1138.63,977.9 1133.14,980.044 1127.34,980.044C1121.03,980.044 1114.94,977.394 1110.63,972.775C1106.48,968.317 1104.31,962.504 1104.52,956.406C1104.74,950.316 1107.25,944.727 1111.57,940.696L1187.14,873.226C1191.25,869.395 1196.74,867.263 1202.63,867.221L1202.86,867.213L1203.86,867.228C1205.22,867.25 1206.42,867.359 1207.53,867.56L1335.64,890.78C1337.25,891.071 1338.98,891.353 1340.81,891.648C1346.47,892.566 1352.87,893.606 1356.68,895.273C1366.11,899.408 1371.93,903.264 1379.74,910.554L1416.28,944.715C1430.27,957.791 1431.64,979.148 1419.31,992.345L1299.29,1124.94L1371.44,1190.6C1377.81,1196.4 1381.54,1204.33 1381.94,1212.95C1382.01,1214.33 1381.96,1215.85 1381.77,1217.72L1381.7,1218.52L1381.77,1219.32C1381.94,1220.96 1382,1222.25 1381.97,1223.55ZM1391.93,1212.47C1391.4,1201.2 1386.51,1190.8 1378.17,1183.2L1313.39,1124.26L1426.67,999.114C1442.72,981.931 1441.13,954.25 1423.11,937.409L1386.56,903.247C1377.82,895.084 1371.29,890.76 1360.69,886.114C1355.72,883.938 1348.63,882.787 1342.38,881.771C1340.64,881.491 1338.97,881.22 1337.43,880.94L1209.31,857.721C1207.66,857.421 1205.93,857.26 1204.02,857.229L1202.8,857.213L1202.45,857.223C1194.13,857.281 1186.29,860.351 1180.4,865.839L1104.83,933.31C1098.5,939.218 1094.84,947.296 1094.53,956.054C1094.22,964.821 1097.34,973.18 1103.32,979.593C1109.51,986.235 1118.26,990.044 1127.34,990.044C1135.68,990.044 1143.57,986.962 1149.54,981.395L1212.65,925.053L1292.4,939.507L1179.78,1061.96C1171.44,1070.88 1167.43,1082.31 1168.76,1093.32L1168.85,1094.09C1169.51,1099.69 1170.61,1109.08 1177.8,1118.23C1211.04,1160.56 1294.36,1223.61 1307.35,1233.34L1305.92,1367.62C1305.67,1378.22 1309.33,1388.45 1316.24,1396.41C1324.02,1405.39 1335.33,1410.7 1347.28,1410.98L1348.19,1410.99C1359.08,1410.99 1369.43,1406.85 1377.32,1399.32C1385.49,1391.53 1390.14,1380.99 1390.42,1369.62L1391.97,1223.72C1392,1222.09 1391.94,1220.48 1391.74,1218.51C1391.96,1216.22 1392.02,1214.3 1391.93,1212.47Z" style="fill:white;fill-rule:nonzero;"/>
    </g>
</svg>
