<?xml version="1.0" encoding="UTF-8" standalone="no"?>
<!DOCTYPE svg PUBLIC "-//W3C//DTD SVG 1.1//EN" "http://www.w3.org/Graphics/SVG/1.1/DTD/svg11.dtd">
<svg width="100%" height="100%" viewBox="0 0 480 480" version="1.1" xmlns="http://www.w3.org/2000/svg" xmlns:xlink="http://www.w3.org/1999/xlink" xml:space="preserve" xmlns:serif="http://www.serif.com/" style="fill-rule:evenodd;clip-rule:evenodd;stroke-linejoin:round;stroke-miterlimit:2;">
    <g transform="matrix(1.0084,0,0,1.00843,-5.03305e-07,-0.850763)">
        <path d="M412.115,128.616C447.396,128.616 476.001,100.015 476.001,64.73C476.001,29.449 447.396,0.844 412.115,0.844C376.83,0.844 348.228,29.449 348.228,64.73C348.267,99.999 376.845,128.577 412.115,128.616ZM412.115,16.815C438.575,16.815 460.03,38.269 460.03,64.73C460.03,91.195 438.575,112.645 412.115,112.645C385.65,112.645 364.2,91.195 364.2,64.73C364.223,38.281 385.662,16.843 412.115,16.815Z" style="fill:white;fill-rule:nonzero;"/>
    </g>
    <g transform="matrix(1.0084,0,0,1.00843,-5.03305e-07,-0.850763)">
        <path d="M139.455,187.824C148.798,187.839 157.766,184.135 164.372,177.522L236.427,105.458L284.525,153.556C298.282,167.313 320.582,167.313 334.339,153.556L334.39,153.51C348.107,139.745 348.107,117.476 334.39,103.711L264.654,33.996C249.065,18.406 223.789,18.406 208.196,33.996L114.507,127.677C104.439,137.76 101.437,152.917 106.896,166.081C112.359,179.241 125.203,187.824 139.455,187.824ZM125.8,139L219.489,45.284C228.843,35.934 244.007,35.934 253.366,45.284L323.097,115.043C330.592,122.565 330.592,134.734 323.097,142.256L323.047,142.307C315.521,149.809 303.343,149.809 295.818,142.307L242.073,88.555C238.954,85.435 233.9,85.435 230.781,88.555L153.072,166.229C145.441,173.533 133.403,173.513 125.8,166.182C118.325,158.665 118.325,146.518 125.8,139Z" style="fill:white;fill-rule:nonzero;"/>
    </g>
    <g transform="matrix(1.0084,0,0,1.00843,-5.03305e-07,-0.850763)">
        <path d="M444.058,208.474L364.2,208.474L364.2,168.545C364.2,165.317 362.254,162.408 359.267,161.172C356.284,159.936 352.849,160.618 350.568,162.899L302.653,210.814C301.156,212.311 300.314,214.343 300.314,216.46L300.314,248.403C300.314,261.638 311.037,272.361 324.271,272.361L444.058,272.361C461.698,272.361 476.001,258.062 476.001,240.418C476.001,222.777 461.698,208.474 444.058,208.474ZM444.058,256.389L324.271,256.389C319.861,256.389 316.285,252.813 316.285,248.403L316.285,219.767L348.228,187.824L348.228,216.46C348.228,220.87 351.804,224.446 356.214,224.446L444.058,224.446C452.878,224.446 460.03,231.597 460.03,240.418C460.03,249.242 452.878,256.389 444.058,256.389Z" style="fill:white;fill-rule:nonzero;"/>
    </g>
    <g transform="matrix(1.0084,0,0,1.00843,-5.03305e-07,-0.850763)">
        <path d="M202.312,313.089L163.756,274.533C160.585,271.538 155.629,271.538 152.463,274.533L10.318,416.682C-3.439,430.435 -3.439,452.735 10.318,466.488L10.318,466.527C24.078,480.264 46.363,480.264 60.124,466.527L202.269,324.382C205.4,321.274 205.416,316.22 202.312,313.089ZM48.855,455.239C41.337,462.741 29.159,462.741 21.641,455.239L21.61,455.239C14.088,447.725 14.088,435.535 21.61,428.021L158.102,291.471L185.366,318.743L48.855,455.239Z" style="fill:white;fill-rule:nonzero;"/>
    </g>
    <g transform="matrix(1.0084,0,0,1.00843,-5.03305e-07,-0.850763)">
        <path d="M243.867,229.94C235.008,220.816 221.914,217.17 209.612,220.398C197.305,223.631 187.697,233.239 184.461,245.545C181.228,257.848 184.87,270.941 193.999,279.805L256.392,342.182L180.733,382.501C163.908,392.113 158.035,413.532 167.612,430.377L168.747,432.471C175.079,443.424 186.773,450.17 199.427,450.166C205.474,450.173 211.417,448.594 216.662,445.584L315.158,392.612L327.936,385.273C338.726,379.093 346.021,368.233 347.667,355.904C349.308,343.578 345.113,331.186 336.32,322.393L243.867,229.94ZM331.832,353.817C330.861,361.203 326.482,367.707 320.005,371.388L208.898,431.617C199.731,436.869 188.041,433.777 182.675,424.676L181.533,422.582C176.304,413.457 179.376,401.826 188.431,396.476L273.408,351.205C275.643,350.016 277.179,347.836 277.549,345.333C277.92,342.829 277.085,340.299 275.292,338.509L205.283,268.512C197.746,260.975 197.746,248.754 205.283,241.217C212.821,233.68 225.041,233.68 232.579,241.217L325.07,333.685C330.366,338.957 332.869,346.417 331.832,353.817Z" style="fill:white;fill-rule:nonzero;"/>
    </g>
</svg>
