<?xml version="1.0" encoding="UTF-8" standalone="no"?>
<!DOCTYPE svg PUBLIC "-//W3C//DTD SVG 1.1//EN" "http://www.w3.org/Graphics/SVG/1.1/DTD/svg11.dtd">
<svg width="100%" height="100%" viewBox="0 0 40 40" version="1.1" xmlns="http://www.w3.org/2000/svg" xmlns:xlink="http://www.w3.org/1999/xlink" xml:space="preserve" xmlns:serif="http://www.serif.com/" style="fill-rule:evenodd;clip-rule:evenodd;stroke-linejoin:round;stroke-miterlimit:2;">
    <g transform="matrix(0.865913,0,0,0.865913,0,2.68173)">
        <g transform="matrix(1,0,0,1,-265.535,-253.108)">
            <path d="M273.716,270.617C270.17,270.617 267.285,273.502 267.285,277.048C267.285,280.594 270.17,283.48 273.716,283.48C277.263,283.48 280.147,280.594 280.147,277.048C280.147,273.502 277.263,270.617 273.716,270.617ZM273.716,285.23C269.205,285.23 265.535,281.559 265.535,277.048C265.535,272.537 269.205,268.867 273.716,268.867C278.228,268.867 281.897,272.537 281.897,277.048C281.897,281.559 278.228,285.23 273.716,285.23Z" style="fill:white;fill-rule:nonzero;"/>
        </g>
        <g transform="matrix(1,0,0,1,-265.535,-253.108)">
            <path d="M303.548,270.617C300.002,270.617 297.117,273.502 297.117,277.048C297.117,280.594 300.002,283.48 303.548,283.48C307.095,283.48 309.979,280.594 309.979,277.048C309.979,273.502 307.095,270.617 303.548,270.617ZM303.548,285.23C299.037,285.23 295.367,281.559 295.367,277.048C295.367,272.537 299.037,268.867 303.548,268.867C308.06,268.867 311.729,272.537 311.729,277.048C311.729,281.559 308.06,285.23 303.548,285.23Z" style="fill:white;fill-rule:nonzero;"/>
        </g>
        <g transform="matrix(1,0,0,1,-265.535,-253.108)">
            <path d="M303.548,277.923L291.68,277.923C291.196,277.923 290.805,277.531 290.805,277.048C290.805,276.565 291.196,276.173 291.68,276.173L303.548,276.173C304.032,276.173 304.423,276.565 304.423,277.048C304.423,277.531 304.032,277.923 303.548,277.923Z" style="fill:white;fill-rule:nonzero;"/>
        </g>
        <g transform="matrix(1,0,0,1,-265.535,-253.108)">
            <path d="M290.146,274.547C288.767,274.547 287.645,275.669 287.645,277.048C287.645,278.427 288.767,279.55 290.146,279.55C291.526,279.55 292.648,278.427 292.648,277.048C292.648,275.669 291.526,274.547 290.146,274.547ZM290.146,280.55C288.216,280.55 286.645,278.979 286.645,277.048C286.645,275.117 288.216,273.547 290.146,273.547C292.078,273.547 293.648,275.117 293.648,277.048C293.648,278.979 292.078,280.55 290.146,280.55Z" style="fill:white;fill-rule:nonzero;"/>
        </g>
        <g transform="matrix(1,0,0,1,-265.535,-253.108)">
            <path d="M296.781,262.57C296.413,262.24 295.921,262.084 295.432,262.137L290.831,262.536C290.702,262.548 290.603,262.655 290.603,262.785L290.603,263.089C290.603,263.215 290.696,263.321 290.822,263.337L297.081,264.116C297.091,264.118 297.102,264.118 297.112,264.118C297.172,264.118 297.231,264.096 297.277,264.056C297.331,264.008 297.362,263.94 297.362,263.868C297.362,263.373 297.15,262.9 296.781,262.57Z" style="fill:white;fill-rule:nonzero;"/>
        </g>
        <g transform="matrix(1,0,0,1,-265.535,-253.108)">
            <path d="M290.146,278.83C289.164,278.83 288.364,278.031 288.364,277.048C288.364,276.066 289.164,275.266 290.146,275.266C291.129,275.266 291.929,276.066 291.929,277.048C291.929,278.031 291.129,278.83 290.146,278.83Z" style="fill:white;fill-rule:nonzero;"/>
        </g>
        <g transform="matrix(1,0,0,1,-265.535,-253.108)">
            <path d="M303.845,275.781C303.787,275.781 303.738,275.807 303.683,275.814L295.308,265.327C295.267,265.276 295.213,265.246 295.164,265.207L295.771,263.45C295.797,263.374 295.785,263.29 295.738,263.224C295.691,263.158 295.616,263.119 295.535,263.119L294.567,263.119C294.461,263.119 294.367,263.185 294.332,263.285L293.72,264.998L280.858,264.998L282.257,262.259C282.396,261.988 282.383,261.664 282.225,261.404C282.065,261.144 281.783,260.986 281.478,260.986L276.322,260.986C276.226,260.986 276.131,261.002 276.041,261.032C275.91,261.077 274.756,261.497 274.564,262.584C274.423,263.383 274.855,264.192 275.848,264.988C276.226,265.29 276.776,265.229 277.078,264.853C277.38,264.476 277.32,263.925 276.943,263.623C276.362,263.157 276.295,262.904 276.284,262.904C276.309,262.859 276.405,262.788 276.501,262.736L280.048,262.736L273.342,275.857C272.829,276.019 272.449,276.482 272.449,277.048C272.449,277.747 273.018,278.315 273.716,278.315C274.415,278.315 274.983,277.747 274.983,277.048C274.983,276.907 274.945,276.777 274.902,276.65L278.813,268.999L286.578,275.613C286.742,275.754 286.944,275.822 287.145,275.822C287.392,275.822 287.638,275.717 287.811,275.514C288.124,275.147 288.08,274.594 287.712,274.281L279.631,267.398L279.963,266.748L293.095,266.748L289.331,277.287C289.304,277.363 289.315,277.448 289.362,277.515C289.409,277.581 289.485,277.621 289.566,277.621L290.696,277.621C290.803,277.621 290.898,277.553 290.933,277.452L294.502,267.122L302.629,277.298C302.749,277.873 303.235,278.315 303.845,278.315C304.543,278.315 305.111,277.747 305.111,277.048C305.111,276.35 304.543,275.781 303.845,275.781Z" style="fill:white;fill-rule:nonzero;"/>
        </g>
    </g>
</svg>
